<?xml version="1.0" standalone="no"?>
<!DOCTYPE svg PUBLIC "-//W3C//DTD SVG 20010904//EN"
 "http://www.w3.org/TR/2001/REC-SVG-20010904/DTD/svg10.dtd">
<svg version="1.0" xmlns="http://www.w3.org/2000/svg"
 width="1280.000000pt" height="1280.000000pt" viewBox="0 0 1280.000000 1280.000000"
 preserveAspectRatio="xMidYMid meet">
<g transform="translate(0.000000,1280.000000) scale(0.100000,-0.100000)"
fill="#000000" stroke="none">
<path d="M1332 11467 c-721 -721 -1312 -1317 -1312 -1322 0 -5 840 -850 1867
-1877 l1868 -1868 -1868 -1868 c-1027 -1027 -1867 -1872 -1867 -1877 0 -13
2622 -2635 2635 -2635 5 0 850 840 1877 1867 l1868 1868 1868 -1868 c1027
-1027 1872 -1867 1877 -1867 13 0 2635 2622 2635 2635 0 5 -840 850 -1867
1877 l-1868 1868 1868 1868 c1027 1027 1867 1872 1867 1877 0 13 -2622 2635
-2635 2635 -5 0 -850 -840 -1877 -1867 l-1868 -1868 -1868 1868 c-1027 1027
-1872 1867 -1877 1867 -6 0 -601 -591 -1323 -1313z"/>
</g>
</svg>
